<?xml version="1.0" standalone="no"?>
<!DOCTYPE svg PUBLIC "-//W3C//DTD SVG 20010904//EN"
 "http://www.w3.org/TR/2001/REC-SVG-20010904/DTD/svg10.dtd">
<svg version="1.0" xmlns="http://www.w3.org/2000/svg"
 width="300.000000pt" height="300.000000pt" viewBox="0 0 300.000000 300.000000"
 preserveAspectRatio="xMidYMid meet">
<metadata>
Created by potrace 1.10, written by Peter Selinger 2001-2011
</metadata>
<g transform="translate(0.000000,300.000000) scale(0.100000,-0.100000)"
fill="#000000" stroke="none">
<path d="M1294 2986 c-3 -8 -6 -20 -8 -28 -5 -34 -44 -79 -113 -129 -105 -76
-147 -134 -187 -255 l-17 -51 -77 -6 c-98 -8 -132 -13 -168 -28 -16 -7 -32
-12 -36 -11 -5 1 -8 -2 -8 -7 0 -5 -8 -12 -19 -16 -10 -3 -32 -18 -48 -33 -44
-40 -113 -72 -158 -72 -22 0 -45 -4 -50 -8 -16 -11 -40 -53 -53 -90 -10 -28
-8 -35 11 -55 18 -19 75 -42 130 -53 4 -1 9 -3 12 -4 3 -1 8 -3 13 -5 4 -1 20
-7 35 -13 16 -7 37 -12 47 -12 10 0 21 -4 25 -9 3 -5 31 -15 63 -22 31 -7 62
-15 67 -19 6 -3 51 -19 100 -34 50 -16 99 -33 110 -38 19 -8 71 -24 185 -55
30 -8 60 -19 65 -23 10 -8 146 -50 155 -48 3 1 14 -4 26 -10 20 -11 55 0 42
13 -6 6 -407 138 -885 292 -101 32 -183 61 -183 64 0 4 9 27 20 53 20 44 23
46 63 46 50 0 116 29 171 74 85 69 186 101 304 94 l65 -3 13 57 c27 116 84
198 184 264 68 45 113 97 125 146 7 28 28 38 85 38 l35 0 -3 -552 c-2 -513 1
-588 23 -566 10 10 18 657 10 891 l-7 237 -79 0 c-60 0 -81 -4 -85 -14z"/>
<path d="M1555 2768 c-4 -128 -5 -383 -3 -566 2 -282 5 -334 18 -343 18 -12
101 -3 111 12 4 7 12 8 18 5 6 -4 11 -2 11 4 0 6 4 9 9 5 5 -3 33 4 63 16 29
12 58 22 63 23 6 2 27 6 48 11 20 4 37 11 37 15 0 4 15 10 33 13 17 3 46 11
62 18 35 14 30 13 75 23 19 5 49 14 65 21 17 6 71 24 120 40 50 15 95 31 101
36 6 5 28 11 50 15 21 3 49 12 62 20 13 8 39 17 59 20 41 5 97 30 114 50 10
12 7 25 -12 66 -31 66 -43 78 -83 78 -46 0 -93 18 -145 54 -24 17 -51 36 -60
41 -9 6 -27 17 -41 26 -41 28 -156 52 -221 47 -57 -4 -60 -3 -65 21 -23 110
-94 217 -187 281 -82 57 -105 80 -119 123 -18 53 -25 57 -103 57 l-73 0 -7
-232z m122 216 c12 -3 24 -17 28 -32 13 -52 48 -94 127 -149 52 -37 91 -73
114 -107 35 -53 74 -153 74 -190 0 -20 5 -21 103 -22 123 0 183 -20 273 -90
73 -57 111 -74 167 -74 41 0 44 -2 65 -45 25 -52 27 -65 10 -65 -9 0 -995
-318 -1045 -337 -11 -4 -13 97 -13 556 l0 561 38 0 c20 0 47 -3 59 -6z"/>
<path d="M1705 2697 c-3 -7 -4 -123 -3 -257 3 -278 5 -281 71 -195 99 128 121
202 92 302 -13 46 -28 69 -71 111 -53 52 -80 64 -89 39z m81 -69 c76 -87 79
-208 7 -304 -13 -17 -23 -34 -23 -37 0 -4 -9 -16 -20 -27 -20 -20 -20 -20 -20
195 0 202 1 215 18 206 9 -5 26 -20 38 -33z"/>
<path d="M2056 2331 c-58 -24 -91 -53 -157 -142 -49 -67 -59 -94 -37 -101 14
-5 458 139 473 153 16 16 -7 42 -64 73 -70 37 -148 44 -215 17z m206 -46 c25
-14 34 -25 29 -34 -5 -7 -12 -12 -17 -11 -14 2 -98 -22 -108 -31 -6 -5 -18 -9
-27 -9 -10 0 -30 -5 -46 -12 -15 -6 -30 -12 -33 -13 -3 0 -38 -11 -79 -23 -40
-13 -75 -21 -78 -18 -6 6 34 63 65 94 13 12 20 22 16 22 -11 0 63 48 83 53 10
3 50 5 88 4 52 0 80 -6 107 -22z"/>
<path d="M1235 2669 c-56 -51 -84 -103 -92 -167 -8 -68 10 -121 75 -217 57
-84 77 -104 94 -87 5 5 7 120 6 258 -3 286 -3 286 -83 213z m55 -216 c-1 -197
-2 -216 -16 -198 -8 11 -24 30 -34 43 -11 12 -20 26 -20 30 0 4 -5 13 -12 20
-16 16 -20 35 -25 117 -5 76 9 125 46 160 12 11 27 25 34 32 6 7 15 12 20 13
4 0 7 -98 7 -217z"/>
<path d="M785 2334 c-23 -8 -58 -28 -79 -45 -32 -27 -35 -34 -24 -45 17 -18
458 -162 476 -156 6 2 12 10 12 18 0 22 -105 160 -145 189 -66 51 -162 67
-240 39z m110 -25 c63 -4 125 -38 168 -92 36 -46 70 -97 63 -97 -2 0 -32 11
-67 24 -35 13 -120 41 -189 61 -150 45 -162 53 -123 74 34 19 86 38 93 35 3
-1 28 -4 55 -5z"/>
<path d="M309 2086 c-17 -11 -39 -74 -39 -108 0 -9 24 -42 54 -73 46 -46 57
-65 67 -113 7 -31 23 -79 37 -106 23 -48 120 -154 175 -192 l28 -20 -22 -59
c-15 -40 -23 -83 -23 -127 l-1 -68 -86 0 c-81 0 -87 -2 -119 -30 -18 -16 -30
-30 -26 -30 5 0 4 -6 -2 -12 -6 -7 -17 -40 -26 -73 -9 -33 -19 -67 -21 -75 -3
-8 -12 -45 -22 -82 -16 -65 -16 -68 2 -88 13 -14 29 -20 50 -19 37 4 56 -7 49
-26 -4 -10 -12 -12 -31 -4 -44 17 -90 11 -108 -13 -22 -32 -48 -125 -41 -151
9 -35 65 -67 119 -67 52 0 51 1 35 -34 -16 -37 12 -66 63 -66 61 0 85 15 130
82 24 35 51 72 61 82 10 11 18 23 18 28 0 11 61 10 79 -1 8 -5 11 -16 6 -30
-10 -33 16 -51 73 -51 49 0 51 1 71 43 11 23 24 58 27 77 4 19 10 40 15 45 8
11 24 85 21 98 -1 4 3 7 9 7 5 0 8 3 6 8 -2 4 1 23 9 42 l12 35 1 -35 c0 -19
-4 -64 -9 -100 -6 -36 -13 -94 -16 -130 -6 -62 -5 -66 17 -77 61 -30 94 -22
135 32 9 11 13 15 10 9 -5 -11 26 -56 38 -55 3 1 42 1 85 1 l79 0 -5 -40 c-7
-52 8 -70 61 -70 49 0 77 24 95 82 12 36 31 60 31 39 0 -6 21 -11 49 -11 42 0
53 4 71 27 19 25 23 26 31 10 6 -9 19 -17 30 -17 11 0 18 -4 15 -8 -2 -4 5 -9
16 -9 11 -1 29 -11 40 -22 24 -27 27 -27 93 9 60 32 70 36 60 20 -4 -6 26 -10
83 -10 49 0 91 -3 95 -6 3 -3 1 -18 -4 -32 -14 -37 18 -68 75 -71 40 -2 46 1
64 31 11 18 23 48 27 66 4 18 11 29 17 26 21 -13 103 -13 124 1 18 12 24 12
43 -1 15 -11 44 -15 107 -13 79 2 87 4 113 30 15 15 34 49 41 76 7 26 21 74
31 105 36 109 15 178 -54 178 -20 0 -27 5 -27 20 0 11 5 20 10 20 6 0 10 -4
10 -8 0 -5 8 -9 18 -9 26 -2 111 27 118 39 5 7 2 8 -7 3 -12 -7 -12 -6 -1 8
12 14 32 74 49 143 10 42 -19 54 -131 54 -91 0 -107 -3 -131 -22 -27 -21 -28
-21 -41 -3 -8 11 -28 19 -49 20 -33 2 -64 15 -35 15 18 0 7 101 -21 182 l-21
63 43 35 c81 65 131 122 160 183 15 33 26 64 23 69 -3 4 -1 8 4 8 5 0 12 17
16 39 3 22 18 52 35 70 15 16 26 33 23 36 -3 3 2 5 11 5 29 0 50 45 41 87 -4
21 -8 40 -8 43 -1 3 -9 16 -18 30 -17 23 -19 24 -65 12 -27 -7 -61 -20 -78
-28 -16 -8 -43 -17 -60 -20 -17 -2 -96 -27 -175 -55 -80 -27 -153 -52 -163
-54 -34 -8 -62 -16 -82 -25 -29 -12 -236 -79 -264 -86 -13 -2 -51 -14 -85 -25
-85 -28 -86 -29 -90 -26 -8 4 -46 -37 -46 -50 0 -18 83 -143 109 -163 3 -3 11
-12 16 -21 12 -19 75 -107 139 -194 25 -33 54 -75 65 -92 l20 -33 -64 0 c-40
0 -65 4 -65 11 0 9 -45 80 -72 114 -24 30 -99 133 -140 192 -61 87 -92 123
-107 123 -20 0 -49 -33 -121 -136 -37 -55 -77 -108 -87 -119 -38 -41 -115
-166 -110 -179 3 -8 -6 -24 -21 -37 -15 -13 -24 -20 -19 -15 13 17 -25 46 -60
46 -18 0 -33 2 -33 5 0 5 85 122 110 152 5 7 10 16 10 21 0 5 11 19 25 32 14
13 25 29 25 36 0 6 7 15 16 18 8 3 13 10 9 15 -3 6 0 13 8 18 15 9 77 88 77
97 0 4 9 17 21 29 31 32 50 74 43 92 -8 19 -55 45 -83 45 -11 0 -22 4 -26 10
-3 5 -12 7 -20 3 -8 -3 -15 0 -15 6 0 6 -6 11 -12 11 -15 0 -295 88 -318 99
-8 5 -40 14 -70 21 -30 8 -59 17 -65 21 -5 3 -77 28 -160 54 -82 26 -172 55
-200 65 -74 25 -108 30 -126 16z m877 -293 l201 -66 -135 -186 c-75 -102 -156
-214 -181 -248 l-45 -63 -68 0 c-37 0 -68 3 -68 7 0 4 8 16 18 27 29 32 183
246 189 262 10 27 -31 27 -111 1 -104 -34 -154 -67 -196 -129 -29 -42 -35 -61
-38 -116 -2 -43 2 -83 11 -110 l15 -44 -51 -73 c-29 -41 -54 -74 -57 -75 -8 0
-12 92 -7 195 2 48 1 50 -27 53 l-29 4 6 61 c4 53 24 126 51 189 6 13 -1 21
-31 36 -93 48 -181 154 -204 247 -19 79 -48 133 -91 170 -38 32 -40 37 -34 72
4 21 9 45 11 53 5 16 4 16 871 -267z m1524 233 l11 -55 -49 -48 c-44 -42 -53
-59 -77 -135 -14 -48 -40 -109 -58 -135 -27 -40 -106 -109 -170 -148 -15 -9
-15 -16 9 -80 14 -38 28 -97 31 -132 l6 -63 -72 0 -71 0 0 43 c-1 80 -63 177
-140 217 -19 10 -68 28 -108 40 -69 21 -102 21 -102 1 0 -5 44 -69 98 -142 54
-74 101 -140 106 -146 5 -10 -9 -13 -62 -13 l-70 0 -168 232 c-93 127 -175
240 -182 249 -11 15 -7 19 35 33 442 140 1010 327 1020 335 1 0 7 -23 13 -53z
m-1187 -400 c7 -16 241 -341 269 -372 18 -20 18 -21 -8 -33 -19 -8 -30 -9 -38
-1 -5 5 -26 10 -46 10 -29 0 -39 6 -59 35 -32 47 -61 47 -61 0 l0 -35 -69 0
-70 0 -3 32 c-4 47 -31 48 -60 4 -23 -35 -24 -36 -95 -36 l-72 0 141 193 c77
105 142 198 145 205 7 16 20 15 26 -2z m-490 -143 c-10 -16 -22 -33 -28 -39
-5 -6 -17 -21 -25 -34 -8 -12 -37 -51 -63 -88 -30 -41 -46 -73 -43 -84 2 -12
-9 -33 -32 -58 l-36 -40 -14 32 c-30 67 -13 170 39 236 21 27 100 69 146 78
18 3 30 10 27 15 -3 5 6 9 21 9 25 0 25 0 8 -27z m983 19 c5 -5 37 -19 71 -32
35 -12 74 -33 87 -47 37 -36 66 -104 66 -150 0 -24 5 -43 13 -46 6 -3 -14 -6
-45 -6 -46 -1 -58 2 -58 14 0 15 -81 140 -117 180 -23 27 -63 83 -63 90 0 8
35 6 46 -3z m-602 -267 c4 -10 -1 -15 -16 -15 -17 0 -18 2 -8 15 7 8 14 15 15
15 2 0 5 -7 9 -15z m203 -17 c-18 -11 -29 2 -16 18 10 12 14 12 20 2 4 -7 3
-16 -4 -20z m-990 -42 c-3 -7 -15 -45 -26 -84 l-21 -70 -46 -11 c-26 -7 -48
-10 -50 -8 -2 2 3 23 11 47 20 56 19 60 -9 60 -21 0 -26 -9 -47 -85 l-24 -85
-47 0 c-27 0 -48 3 -48 8 0 4 14 52 30 107 40 132 44 135 177 135 85 0 104 -3
100 -14z m337 -133 c-25 -82 -54 -186 -67 -231 -22 -82 -23 -85 -84 -133 -69
-54 -79 -59 -63 -30 5 11 10 22 10 25 0 3 -31 6 -68 6 l-69 0 -68 -94 -68 -94
-58 -4 c-33 -2 -59 -2 -59 0 0 2 19 28 43 59 23 30 49 65 57 77 8 13 105 145
215 294 l199 272 62 0 62 0 -44 -147z m166 139 c0 -15 -49 -284 -56 -304 -4
-13 -2 -18 4 -14 5 3 13 18 17 33 3 15 29 87 57 160 l50 133 140 0 140 0 -5
-22 -6 -23 16 23 c14 20 23 22 119 22 107 0 134 -10 134 -48 0 -9 -35 -136
-78 -282 l-78 -265 -51 -3 -50 -3 73 248 c41 136 74 251 74 256 0 4 -84 6
-186 5 l-185 -3 -58 -140 c-32 -77 -79 -191 -106 -252 l-48 -113 -50 0 c-35 0
-48 4 -44 13 2 6 22 141 43 300 l39 287 47 0 c27 0 48 -4 48 -8z m863 -37
l-15 -45 -58 0 -59 0 -25 -82 c-70 -235 -97 -330 -94 -333 2 -2 12 -5 22 -7
17 -2 24 10 46 82 15 47 30 96 35 109 5 16 4 21 -4 17 -14 -9 -14 -1 0 47 l10
37 59 0 c33 0 60 -1 60 -2 0 -2 -24 -84 -54 -183 l-53 -180 -58 -33 -57 -32 6
25 c6 23 4 25 -27 25 -45 0 -87 33 -87 68 0 26 79 309 123 442 27 81 43 90
159 90 l87 0 -16 -45z m252 23 l-6 -23 17 23 c15 20 24 22 120 22 104 0 134
-10 134 -44 0 -33 -74 -253 -89 -266 -13 -11 -15 -20 -8 -31 7 -11 -1 -51 -25
-135 l-35 -119 -50 -3 -51 -3 34 113 c19 62 34 119 34 126 0 19 -38 14 -44 -5
-43 -147 -96 -326 -96 -328 0 -2 -23 -5 -50 -7 -28 -1 -50 -1 -50 1 0 2 29
101 64 220 35 119 75 253 87 299 l24 82 47 0 c27 0 48 -4 48 -9 0 -9 -36 -128
-47 -158 -4 -11 1 -14 22 -11 26 3 30 10 55 90 15 48 25 90 22 93 -3 3 -97 5
-208 5 l-203 0 27 45 27 44 103 1 c102 0 103 0 97 -22z m527 -62 l-26 -85 -44
-11 c-25 -6 -47 -9 -49 -6 -3 3 2 26 11 52 9 26 16 49 16 51 0 2 -11 3 -25 3
-21 0 -26 -8 -45 -72 -12 -40 -23 -79 -25 -85 -3 -8 -23 -13 -53 -13 l-49 0
32 107 c42 140 47 143 180 143 l102 0 -25 -84z m-1412 -30 c0 -7 -6 -31 -13
-52 -31 -89 -31 -89 18 -86 49 4 50 4 34 -50 -10 -37 -11 -38 -58 -38 l-48 0
-18 -67 c-10 -38 -22 -76 -27 -85 -8 -16 -3 -18 46 -18 l55 0 -26 -45 -25 -45
-90 0 c-77 0 -89 2 -84 15 3 9 19 64 36 123 17 59 49 164 71 235 l40 127 44 0
c32 0 45 -4 45 -14z m220 4 c0 -6 -36 -133 -80 -283 -45 -150 -83 -279 -86
-289 -3 -11 -19 -17 -55 -20 -41 -2 -49 0 -46 12 41 143 170 577 174 583 7 11
93 8 93 -3z m550 1 c0 -5 -9 -38 -20 -73 -11 -34 -20 -65 -20 -68 0 -3 20 -4
45 -2 50 4 50 5 33 -49 -11 -38 -12 -39 -58 -39 l-46 0 -26 -85 -25 -85 53 0
53 0 -26 -45 -25 -45 -90 0 c-68 0 -89 3 -85 13 2 6 35 119 73 249 l69 238 48
0 c26 0 47 -4 47 -9z m-683 -23 c-2 -7 -10 -30 -18 -50 -11 -32 -18 -38 -41
-38 -26 0 -28 2 -22 28 4 15 9 32 13 37 3 6 6 13 7 18 1 4 2 9 3 12 0 3 15 5
32 5 21 0 30 -4 26 -12z m546 0 c2 -7 0 -22 -5 -34 -8 -17 -20 -21 -60 -23
-63 -2 -69 3 -56 39 9 28 13 30 63 30 34 0 55 -5 58 -12z m222 -5 c-1 -10 -7
-31 -14 -46 -6 -16 -11 -32 -11 -38 0 -5 -10 -7 -22 -5 -20 3 -23 9 -21 42 4
56 9 64 41 64 21 0 28 -4 27 -17z m-1560 -79 c16 -25 16 -27 -4 -53 -12 -14
-26 -36 -33 -48 -6 -13 -15 -23 -20 -23 -4 0 -8 -6 -8 -13 0 -8 -10 -22 -21
-33 l-22 -19 6 48 c10 72 -18 117 -73 117 -10 0 -20 7 -23 15 -7 17 9 30 18
15 7 -11 79 -3 108 12 10 5 24 24 30 41 l11 32 7 -32 c3 -18 14 -44 24 -59z
m-137 -66 c19 -19 15 -46 -23 -169 -44 -145 -50 -151 -163 -147 -107 4 -112
10 -88 102 l18 66 49 0 48 0 -14 -41 c-19 -52 -19 -49 9 -49 25 0 26 3 72 163
5 15 -3 17 -65 17 -39 0 -71 2 -71 4 0 1 5 17 11 35 l11 31 97 0 c62 0 101 -4
109 -12z m2166 -4 c21 -21 21 -22 -19 -159 -44 -150 -49 -155 -159 -155 -112
0 -122 13 -91 118 l16 52 45 0 c50 0 48 5 28 -67 -5 -19 -2 -23 18 -23 21 0
26 8 45 73 12 39 25 80 28 90 6 15 0 17 -64 17 -74 0 -77 2 -61 44 9 25 12 26
104 26 73 0 98 -4 110 -16z m-1317 -111 c-12 -62 -26 -83 -53 -83 -25 0 -26 2
-19 37 10 56 23 73 52 73 23 0 25 -3 20 -27z m773 17 c0 -5 -5 -30 -12 -55
-11 -42 -15 -45 -44 -45 l-32 0 10 38 c6 20 14 45 19 55 10 18 59 24 59 7z
m410 -13 c0 -7 -4 -19 -10 -27 -8 -12 -10 -12 -16 3 -4 11 -17 17 -40 17 -21
0 -34 5 -34 13 0 8 15 11 50 9 29 -2 50 -9 50 -15z m-1701 -149 l-18 -53 -53
-2 -53 -3 35 28 c19 15 48 39 65 54 16 15 33 28 36 28 3 0 -2 -24 -12 -52z"/>
<path d="M545 1861 c-8 -14 29 -107 59 -146 14 -18 52 -46 83 -62 75 -37 146
-36 263 4 136 45 129 52 -140 139 -230 75 -254 81 -265 65z m118 -48 c20 -3
37 -9 37 -13 0 -8 91 -33 117 -33 7 0 10 -4 8 -8 -3 -4 12 -10 33 -15 43 -9
40 -8 72 -21 14 -6 32 -12 40 -15 8 -3 -6 -13 -35 -24 -35 -13 -75 -19 -135
-19 -78 0 -88 2 -126 29 -42 31 -76 74 -89 115 -7 22 -5 23 16 17 13 -4 41
-10 62 -13z"/>
<path d="M2205 1796 c-186 -61 -220 -75 -220 -92 0 -27 147 -77 230 -78 103
-1 190 55 235 150 28 60 27 94 -2 93 -13 -1 -122 -34 -243 -73z m221 -1 c-9
-37 -66 -96 -111 -116 -54 -25 -140 -24 -219 2 l-65 22 112 38 c62 21 117 39
123 39 6 0 29 8 50 17 22 9 50 18 63 20 13 1 29 7 35 13 14 14 20 -3 12 -35z"/>
<path d="M774 885 c-38 -53 -75 -105 -83 -116 -13 -18 -11 -19 37 -19 46 0 51
2 59 27 l10 28 28 -43 c15 -23 30 -40 33 -38 2 3 -10 27 -27 54 l-31 49 24 74
c13 41 23 75 21 77 -1 1 -33 -40 -71 -93z m-12 -87 c-7 -7 -12 -8 -12 -2 0 14
12 26 19 19 2 -3 -1 -11 -7 -17z"/>
</g>
</svg>
